<svg width="512" height="512" viewBox="0 0 512 512" fill="none" xmlns="http://www.w3.org/2000/svg">
<path fill-rule="evenodd" clip-rule="evenodd" d="M154.888 239.987C164.645 237.468 174.265 233.87 186.291 228.198C176.594 234.174 165.961 237.801 154.888 239.987ZM186.291 283.802C173.965 278.002 164.093 274.353 153.631 271.771C165.155 273.928 176.227 277.6 186.291 283.802Z" fill="#17A248"/>
<path d="M512 256C512 114.611 397.389 0 256 0C118.912 0 7.00163 107.763 0.307227 243.2L0 268.8V435.2C0 455.569 8.0914 475.103 22.4942 489.506C36.897 503.909 56.4314 512 76.8 512H243.2V399.693C243.2 374.067 241.638 347.52 228.198 325.709C217.693 308.66 203.34 294.307 186.291 283.802C173.965 278.002 164.093 274.353 153.631 271.771C143.942 269.38 133.748 267.904 120.63 266.483L77.328 265.69C75.3069 264.999 73.5524 263.693 72.3102 261.956C71.0679 260.218 70.4 258.136 70.4 256C70.4 253.864 71.0679 251.782 72.3102 250.044C73.5524 248.307 75.3069 247.001 77.328 246.31L120.63 245.517C134.183 244.097 144.611 242.641 154.888 239.987C164.645 237.468 174.265 233.87 186.291 228.198C201.923 218.577 215.302 205.705 225.521 190.458C235.74 175.21 242.559 157.943 245.517 139.827L246.31 134.925C247.001 132.904 248.307 131.149 250.044 129.907C251.782 128.665 253.864 127.997 256 127.997C258.136 127.997 260.218 128.665 261.956 129.907C263.693 131.149 264.999 132.904 265.69 134.925L266.483 139.827C270.807 166.295 283.335 190.737 302.299 209.701C321.263 228.665 345.705 241.193 372.173 245.517L377.075 246.31C379.096 247.001 380.851 248.307 382.093 250.044C383.335 251.782 384.003 253.864 384.003 256C384.003 258.136 383.335 260.218 382.093 261.956C380.851 263.693 379.096 264.999 377.075 265.69L372.173 266.483C354.058 269.442 336.791 276.262 321.543 286.48C306.295 296.699 293.424 310.078 283.802 325.709C270.362 347.52 268.8 374.067 268.8 399.693V512H435.2C455.569 512 475.103 503.909 489.506 489.506C503.909 475.103 512 455.569 512 435.2V256Z" fill="#17A248"/>
</svg>
