<svg width="20" height="20" viewBox="0 0 20 20" fill="none" xmlns="http://www.w3.org/2000/svg">
<g opacity="0.6">
<path d="M18.3332 8.33329H1.6665M1.6665 6.83329L1.6665 13.1666C1.6665 14.1 1.6665 14.5668 1.84816 14.9233C2.00795 15.2369 2.26292 15.4918 2.57652 15.6516C2.93304 15.8333 3.39975 15.8333 4.33317 15.8333L15.6665 15.8333C16.5999 15.8333 17.0666 15.8333 17.4232 15.6516C17.7368 15.4918 17.9917 15.2369 18.1515 14.9233C18.3332 14.5668 18.3332 14.1 18.3332 13.1666V6.83329C18.3332 5.89987 18.3332 5.43316 18.1515 5.07664C17.9917 4.76304 17.7368 4.50807 17.4232 4.34828C17.0666 4.16663 16.5999 4.16663 15.6665 4.16663L4.33317 4.16663C3.39975 4.16663 2.93304 4.16663 2.57652 4.34828C2.26292 4.50807 2.00795 4.76304 1.84816 5.07664C1.6665 5.43316 1.6665 5.89987 1.6665 6.83329Z" stroke="#7C7C67" stroke-width="1.25" stroke-linecap="round" stroke-linejoin="round"/>
</g>
</svg>
